<?xml version="1.0" standalone="no"?>
<!DOCTYPE svg PUBLIC "-//W3C//DTD SVG 20010904//EN"
 "http://www.w3.org/TR/2001/REC-SVG-20010904/DTD/svg10.dtd">
<svg version="1.0" xmlns="http://www.w3.org/2000/svg"
 width="256.000000pt" height="256.000000pt" viewBox="0 0 256.000000 256.000000"
 preserveAspectRatio="xMidYMid meet">

<g transform="translate(0.000000,256.000000) scale(0.100000,-0.100000)"
fill="#000000" stroke="none">
<path d="M0 1280 l0 -1280 1280 0 1280 0 0 1280 0 1280 -1280 0 -1280 0 0
-1280z m1214 900 c14 -5 34 -18 44 -28 11 -11 41 -23 68 -27 56 -8 111 -33
138 -64 14 -16 31 -21 65 -21 45 0 87 -19 104 -47 9 -14 119 -67 160 -77 16
-4 40 -18 53 -31 32 -32 33 -100 3 -139 -13 -17 -19 -37 -17 -58 l3 -33 187
-5 c208 -6 225 -11 260 -81 41 -79 16 -204 -77 -394 -110 -225 -209 -353 -321
-416 l-54 -31 0 -96 c0 -110 -15 -147 -72 -182 -32 -19 -52 -20 -454 -20 -420
0 -421 0 -454 22 -18 13 -43 36 -54 51 -21 28 -21 38 -24 609 l-3 580 -29 25
c-67 56 -34 173 49 173 11 0 22 9 26 20 9 29 148 147 182 154 19 4 35 19 48
43 36 68 105 98 169 73z"/>
<path d="M1830 1185 c0 -157 4 -285 8 -285 4 0 29 13 54 29 92 59 226 294 235
415 5 62 4 66 -25 95 l-30 31 -121 0 -121 0 0 -285z"/>
</g>
</svg>
