<?xml version="1.0" standalone="no"?>
<!DOCTYPE svg PUBLIC "-//W3C//DTD SVG 20010904//EN"
 "http://www.w3.org/TR/2001/REC-SVG-20010904/DTD/svg10.dtd">
<svg version="1.0" xmlns="http://www.w3.org/2000/svg"
 width="256.000000pt" height="256.000000pt" viewBox="0 0 256.000000 256.000000"
 preserveAspectRatio="xMidYMid meet">

<g transform="translate(0.000000,256.000000) scale(0.100000,-0.100000)"
fill="#000000" stroke="none">
<path d="M0 1280 l0 -1280 1280 0 1280 0 0 1280 0 1280 -1280 0 -1280 0 0
-1280z m540 1015 l0 -55 635 0 635 0 0 55 0 55 55 0 55 0 0 -214 0 -215 148
-3 c145 -3 150 -4 190 -32 26 -17 51 -47 67 -79 l25 -51 0 -476 0 -476 -25
-51 c-16 -32 -41 -62 -67 -79 -40 -28 -45 -29 -188 -32 l-147 -3 -5 -83 c-8
-115 -45 -177 -133 -217 -37 -17 -78 -19 -610 -19 l-570 0 -51 24 c-59 27 -94
70 -118 140 -14 44 -16 144 -16 958 l0 908 60 0 60 0 0 -55z"/>
<path d="M705 1785 c-72 -59 -66 13 -63 -676 l3 -621 33 -29 c18 -16 41 -29
52 -29 20 0 20 8 20 690 0 380 -3 690 -7 690 -5 0 -21 -12 -38 -25z"/>
<path d="M1537 1790 c-15 -12 -31 -38 -37 -58 -14 -51 -14 -1174 1 -1225 10
-37 55 -77 87 -77 9 0 12 145 12 690 0 667 -1 690 -19 690 -10 0 -30 -9 -44
-20z"/>
<path d="M1074 1751 c-2 -2 -4 -285 -4 -629 l0 -624 34 -34 c70 -70 66 -108
66 625 l0 659 -46 4 c-25 2 -47 1 -50 -1z"/>
<path d="M1920 1280 l0 -420 69 0 c53 0 74 4 93 20 47 37 49 53 46 419 l-3
343 -33 29 c-29 26 -39 29 -102 29 l-70 0 0 -420z"/>
</g>
</svg>
